{"title":"Mr.Robot.S01E07.HDTV.480p.x264.AAC-VYTO [P2PDL]","uid":12201724,"size":159779479,"categoryP":"video","categoryS":"hd___tv_shows","magnet":"?xt=urn:btih:81f95e3561e776f36f7260d7b0f0bd11b791ba48&amp;dn=Mr.Robot.S01E07.HDTV.480p.x264.AAC-VYTO+%5BP2PDL%5D&amp;tr=udp%3A%2F%2Ftracker.openbittorrent.com%3A80&amp;tr=udp%3A%2F%2Fopen.demonii.com%3A1337&amp;tr=udp%3A%2F%2Ftracker.coppersurfer.tk%3A6969&amp;tr=udp%3A%2F%2Fexodus.desync.com%3A6969","seeders":5,"leechers":1,"uploader":"ValidusVyto","files":6,"time":1438847861,"description":"Mr.Robot.S01E07.HDTV.480p.x264.AAC-VYTO\n\n\nGeneral\nFormat                         : MPEG-\nFile size                      : 147 MiB\nDuration                       : 44mn 22s\nOverall bit rate               : 462 Kbps\n\nVideo\nFormat                         : AVC\nBit rate                       : 427 Kbps\nWidth                          : 720 pixels\nHeight                         : 400 pixels\nDisplay aspect ratio           : 16:9\nFrame rate mode                : Constant\nFrame rate                     : 23.976 fps\nBit depth                      : 8 bits\nStream size                    : 135 MiB (92%)\nWriting library                : x264 core 146 r2538 121396C\nAudio\nFormat                         : AAC\nBit rate mode                  : Variable\nBit rate                       : 32.0 Kbps\nChannel(s)                     : 2 channels\nChannel positions              : Front: L R\nSampling rate                  : 48.0 KHz\nStream size                    : 10.2 MiB (7%)\n\nScreenshots:\n &lt;a href=&quot;\nhttp://ititli.com/images/V2hPxNu6.jpg&quot; rel=&quot;nofollow&quot; target=&quot;_NEW&quot;&gt;\nhttp://ititli.com/images/V2hPxNu6.jpg&lt;/a&gt; &lt;a href=&quot;\nhttp://ititli.com/images/McXCFk5.jpg&quot; rel=&quot;nofollow&quot; target=&quot;_NEW&quot;&gt;\nhttp://ititli.com/images/McXCFk5.jpg&lt;/a&gt; &lt;a href=&quot;\nhttp://ititli.com/images/XG62VsyT.jpg&quot; rel=&quot;nofollow&quot; target=&quot;_NEW&quot;&gt;\nhttp://ititli.com/images/XG62VsyT.jpg&lt;/a&gt; &lt;a href=&quot;\nhttp://ititli.com/images/kHVaY.jpg&quot; rel=&quot;nofollow&quot; target=&quot;_NEW&quot;&gt;\nhttp://ititli.com/images/kHVaY.jpg&lt;/a&gt; &lt;a href=&quot;\nhttp://ititli.com/images/uPTyl7a.jpg&quot; rel=&quot;nofollow&quot; target=&quot;_NEW&quot;&gt;\nhttp://ititli.com/images/uPTyl7a.jpg&lt;/a&gt; &lt;a href=&quot;\nhttp://ititli.com/images/elLbBS.jpg&quot; rel=&quot;nofollow&quot; target=&quot;_NEW&quot;&gt;\nhttp://ititli.com/images/elLbBS.jpg&lt;/a&gt; &lt;a href=&quot;\nhttp://ititli.com/images/iRbT46H.jpg&quot; rel=&quot;nofollow&quot; target=&quot;_NEW&quot;&gt;\nhttp://ititli.com/images/iRbT46H.jpg&lt;/a&gt; &lt;a href=&quot;\nhttp://ititli.com/images/G96uvh1j8.jpg&quot; rel=&quot;nofollow&quot; target=&quot;_NEW&quot;&gt;\nhttp://ititli.com/images/G96uvh1j8.jpg&lt;/a&gt; &lt;a href=&quot;\nhttp://ititli.com/images/x4O7Dz.jpg&quot; rel=&quot;nofollow&quot; target=&quot;_NEW&quot;&gt;\nhttp://ititli.com/images/x4O7Dz.jpg&lt;/a&gt; &lt;a href=&quot;\nhttp://ititli.com/images/rpojIOec.jpg&quot; rel=&quot;nofollow&quot; target=&quot;_NEW&quot;&gt;\nhttp://ititli.com/images/rpojIOec.jpg&lt;/a&gt; &lt;a href=&quot;\nhttp://ititli.com/images/M7mEkBt9.jpg&quot; rel=&quot;nofollow&quot; target=&quot;_NEW&quot;&gt;\nhttp://ititli.com/images/M7mEkBt9.jpg&lt;/a&gt; &lt;a href=&quot;\nhttp://ititli.com/images/k6bWXf.jpg&quot; rel=&quot;nofollow&quot; target=&quot;_NEW&quot;&gt;\nhttp://ititli.com/images/k6bWXf.jpg&lt;/a&gt;\n\n----------------------------------------------------------------------------------------------------\n\n\nEncoder Notes: Looking For Early Access To Anything You Can Provide DVDScr, R5, DVDR, BluRay, Direct\nAudio, Music Releases and Seedboxes. If You Got anything to offer please contact us.\n\nSupport us by donating BC - 1FgwdzPsd1y25Gea8wP1qni35uGCtmkRCD","torrent":{"xt":"urn:btih:81f95e3561e776f36f7260d7b0f0bd11b791ba48","amp;dn":"Mr.Robot.S01E07.HDTV.480p.x264.AAC-VYTO+%5BP2PDL%5D","amp;tr":["udp%3A%2F%2Ftracker.openbittorrent.com%3A80","udp%3A%2F%2Fopen.demonii.com%3A1337","udp%3A%2F%2Ftracker.coppersurfer.tk%3A6969","udp%3A%2F%2Fexodus.desync.com%3A6969"],"infoHash":"81f95e3561e776f36f7260d7b0f0bd11b791ba48","infoHashBuffer":{"type":"Buffer","data":[129,249,94,53,97,231,118,243,111,114,96,215,176,240,189,17,183,145,186,72]},"announce":[],"urlList":[]}}